# xmcd
# 
# Track frame offsets:
#   150
#   13973
#   29442
#   43935
#   57537
#   75032
#   89024
#   106311
#   119434
#   136742
#   153918
#   167144
#   179008
# 
# Disc length: 2664 seconds
# 
# Revision: 1
# Processed by: cddbd v1.5.2PL0 Copyright (c) Steve Scherf et al.
# Submitted via: VOLTOCDX V1.0.22 
# 
DISCID=ac0a660d
DTITLE=Christopher Wayne Morris - Something Good's Comin' Down
DYEAR=2004
DGENRE=country
TTITLE0=Small Town
TTITLE1=It's Probably Just Me
TTITLE2=It's Your Lovin' Me
TTITLE3=Only Time Will Tell
TTITLE4=Love's Not What I Expected
TTITLE5=What You Do To Me
TTITLE6=She's Yours
TTITLE7=There's More To It Than That
TTITLE8=I'll Walk You Through This
TTITLE9=He Ain't No Hank
TTITLE10=This Memory Is Mine
TTITLE11=Something Good's Comin' Down
TTITLE12=Wes Tyrell
EXTD=
EXTT0=
EXTT1=
EXTT2=
EXTT3=
EXTT4=
EXTT5=
EXTT6=
EXTT7=
EXTT8=
EXTT9=
EXTT10=
EXTT11=
EXTT12=
PLAYORDER=
